<svg xmlns="http://www.w3.org/2000/svg" version="1.1" xmlns:xlink="http://www.w3.org/1999/xlink" width="512" height="512" x="0" y="0" viewBox="0 0 32 32" style="enable-background:new 0 0 512 512" xml:space="preserve" class=""><g><path d="M8.5 8h-1a.5.5 0 0 0-.5.5v1a.5.5 0 0 0 .5.5h1a.5.5 0 0 0 .5-.5v-1a.5.5 0 0 0-.5-.5zM10.5 10h6a.5.5 0 0 0 .5-.5v-1a.5.5 0 0 0-.5-.5h-6a.5.5 0 0 0-.5.5v1a.5.5 0 0 0 .5.5zM8.5 12h-1a.5.5 0 0 0-.5.5v1a.5.5 0 0 0 .5.5h1a.5.5 0 0 0 .5-.5v-1a.5.5 0 0 0-.5-.5zM10.5 14h6a.5.5 0 0 0 .5-.5v-1a.5.5 0 0 0-.5-.5h-6a.5.5 0 0 0-.5.5v1a.5.5 0 0 0 .5.5zM8.5 16h-1a.5.5 0 0 0-.5.5v1a.5.5 0 0 0 .5.5h1a.5.5 0 0 0 .5-.5v-1a.5.5 0 0 0-.5-.5zM12.5 16h-2a.5.5 0 0 0-.5.5v1a.5.5 0 0 0 .5.5h2a.5.5 0 0 0 .5-.5v-1a.5.5 0 0 0-.5-.5z" fill="#000000" opacity="1" data-original="#000000" class=""></path><path d="m28.373 15.333-.746-.666a.5.5 0 0 0-.706.04l-2.04 2.285A6.978 6.978 0 0 0 21 15.08V6c0-1.654-1.346-3-3-3H6C4.346 3 3 4.346 3 6v14c0 1.654 1.346 3 3 3h7.08c.488 3.386 3.401 6 6.92 6 3.86 0 7-3.14 7-7 0-1.23-.322-2.386-.881-3.392l2.294-2.569a.5.5 0 0 0-.04-.706zM5 20V6a1 1 0 0 1 1-1h12a1 1 0 0 1 1 1v9.08A7.005 7.005 0 0 0 13.08 21H6a1 1 0 0 1-1-1zm20 2c0 2.757-2.243 5-5 5s-5-2.243-5-5 2.243-5 5-5c1.387 0 2.642.569 3.548 1.484l-2.914 3.264-1.538-1.97a.5.5 0 0 0-.702-.086l-.788.615a.5.5 0 0 0-.086.702l2.274 2.913a1 1 0 0 0 .755.384h.033c.284 0 .556-.12.746-.333l3.335-3.735c.209.55.337 1.14.337 1.762z" fill="#000000" opacity="1" data-original="#000000" class=""></path></g></svg>